<svg id="Capa_1" enable-background="new 0 0 512 512" height="512" viewBox="0 0 512 512" width="512" xmlns="http://www.w3.org/2000/svg" xmlns:xlink="http://www.w3.org/1999/xlink"><linearGradient id="SVGID_1_" gradientUnits="userSpaceOnUse" x1="5.399" x2="506.601" y1="256" y2="256"><stop offset="0" stop-color="#ffdbed"/><stop offset="1" stop-color="#dcfdee"/></linearGradient><g><g><g><path d="m461.173 27.352c-63.757-37.987-146.258-35.878-208.873 3.041-35.18 21.866-62.374 53.403-93.212 80.552-27.022 23.789-58.445 40.758-86.353 63.204-101.21 81.403-91.553 300.961 50.962 330.125 61.777 12.642 146.21 16.696 182.519-43.642 34.62-57.531 46.232-116.383 113.876-146.942 23.573-10.65 62.975-10.113 78.944-33.45 20.152-29.45-4.853-60.043-18.192-85.707-17.19-33.074-20.795-65.682-8.699-101.16 10.298-30.211 17.549-43.782-10.972-66.021z" fill="url(#SVGID_1_)"/></g><g><g><path d="m454.475 172.594h-24.34c18.103-11.022 30.192-30.941 30.192-53.684 0-34.688-28.12-62.807-62.808-62.807s-62.808 28.12-62.808 62.807v10.869h-149.605l-1.191-6.644c-.854-4.766-5.001-8.236-9.843-8.236h-12.74c-5.523 0-10 4.477-10 10v47.695h-18.888v-23.081c0-9.245-7.521-16.767-16.767-16.767h-56.19c-8.128 0-14.74 6.612-14.74 14.74s6.612 14.74 14.74 14.74h12.206c2.607 0 4.728 2.121 4.728 4.728s-2.121 4.728-4.728 4.728h-12.723c-7.843 0-14.223 6.381-14.223 14.224s6.38 14.224 14.223 14.224h10.685c3.731 0 6.766 3.035 6.766 6.766v12.104h-5.797c-9.321 0-16.877 7.556-16.877 16.877v162.471c0 9.321 7.556 16.877 16.877 16.877h21.594c9.321 0 16.877-7.556 16.877-16.877v9.099c0 4.296 3.482 7.778 7.778 7.778h47.504v45.675c0 5.52 4.47 10 10 10h222.6c5.52 0 10-4.48 10-10v-45.675h47.498c4.296 0 7.778-3.482 7.778-7.778v-41.483-185.59c0-4.298-3.483-7.78-7.778-7.78zm-345.38 7.778v55.504c0-9.321-7.556-16.877-16.877-16.877h-5.797v-12.104c0-9.244-7.521-16.766-16.766-16.766h-10.685c-2.329 0-4.223-1.895-4.223-4.224s1.895-4.224 4.223-4.224h12.723c8.121 0 14.728-6.606 14.728-14.728s-6.607-14.728-14.728-14.728h-12.206c-2.614 0-4.74-2.126-4.74-4.74s2.126-4.74 4.74-4.74h56.189c3.731 0 6.767 3.035 6.767 6.767v23.081h-5.57c-4.296.001-7.778 3.483-7.778 7.779z" fill="#2626bc" opacity=".1"/><g><g><g><path d="m170.68 105.779h229.989v42.815h-229.989z" fill="#4369fd"/><path d="m462.253 341.962h-353.158v41.483c0 4.296 3.482 7.778 7.778 7.778h337.602c4.296 0 7.778-3.482 7.778-7.778z" fill="#6583fe"/><path d="m134.801 366.593h301.746v24.631h-301.746z" fill="#4369fd"/><path d="m462.253 341.962h-353.158v-185.59c0-4.296 3.482-7.778 7.778-7.778h337.602c4.296 0 7.778 3.482 7.778 7.778z" fill="#9fb0fe"/><path d="m454.475 148.594h-177.468v155.584c0 2.761 2.239 5 5 5h180.246v-152.806c0-4.296-3.483-7.778-7.778-7.778z" fill="#8399fe"/><path d="m462.25 156.369v140.2h-180.24c-2.76 0-5-2.24-5-5v-142.98h177.46c4.3 0 7.78 3.49 7.78 7.78z" fill="#ff7eb8"/><g><g><path d="m449.54 148.589c-11.29 16.66-30.38 27.6-52.02 27.6h-54.93c-4.35 0-7.88-3.53-7.88-7.88v-19.72z" fill="#ff5ba8"/></g></g><path d="m406.977 366.589v70.31c0 5.52-4.48 10-10 10h-222.6c-5.53 0-10-4.48-10-10v-70.31z" fill="#fff"/><path d="m164.377 366.589h242.6v18.63h-242.6z" fill="#d2deff"/><path d="m431.154 183.569v27.33c0 2.76-2.24 5-5 5h-118c-2.77 0-5-2.24-5-5v-27.33c0-2.76 2.23-5 5-5h118c2.76 0 5 2.24 5 5z" fill="#02ffb3"/><path d="m405.524 178.569-37.33 37.33h-15l37.33-37.33z" fill="#97ffd2"/><path d="m378.504 178.569-37.33 37.33h-26.02l37.33-37.33z" fill="#97ffd2"/><circle cx="367.154" cy="254.902" fill="#9fb0fe" r="19.711"/><circle cx="367.154" cy="254.902" fill="#ff7eb8" r="9.624"/><g><g><path d="m333.942 250.278h-25.788c-2.761 0-5-2.238-5-5s2.239-5 5-5h25.788c2.761 0 5 2.238 5 5s-2.239 5-5 5z" fill="#ff5ba8"/></g><g><path d="m333.942 267.232h-25.788c-2.761 0-5-2.238-5-5s2.239-5 5-5h25.788c2.761 0 5 2.238 5 5s-2.239 5-5 5z" fill="#ff5ba8"/></g></g><g><g><path d="m426.154 250.278h-25.788c-2.761 0-5-2.238-5-5s2.239-5 5-5h25.788c2.761 0 5 2.238 5 5s-2.239 5-5 5z" fill="#ff5ba8"/></g><g><path d="m426.154 267.232h-25.788c-2.761 0-5-2.238-5-5s2.239-5 5-5h25.788c2.761 0 5 2.238 5 5s-2.239 5-5 5z" fill="#ff5ba8"/></g></g><g><g><g><circle cx="145.802" cy="229.379" fill="#ff7eb8" r="12.121"/></g><g><circle cx="181.975" cy="229.379" fill="#ff7eb8" r="12.121"/></g><g><circle cx="218.149" cy="229.379" fill="#ff7eb8" r="12.121"/></g></g><g><g><circle cx="145.802" cy="260.78" fill="#ff7eb8" r="12.121"/></g><g><circle cx="181.975" cy="260.78" fill="#ff7eb8" r="12.121"/></g><g><circle cx="218.149" cy="260.78" fill="#ff7eb8" r="12.121"/></g></g><g><g><circle cx="145.802" cy="292.181" fill="#ff7eb8" r="12.121"/></g><g><circle cx="181.975" cy="292.181" fill="#ff7eb8" r="12.121"/></g><g><circle cx="218.149" cy="292.181" fill="#ff7eb8" r="12.121"/></g></g><g fill="#6583fe"><path d="m254.767 231.944h-4.909c-3.604 0-6.526-2.922-6.526-6.526 0-3.604 2.922-6.526 6.526-6.526h4.909c3.604 0 6.526 2.922 6.526 6.526.001 3.604-2.921 6.526-6.526 6.526z"/><path d="m254.767 255.728h-4.909c-3.604 0-6.526-2.922-6.526-6.526 0-3.604 2.922-6.526 6.526-6.526h4.909c3.604 0 6.526 2.922 6.526 6.526.001 3.604-2.921 6.526-6.526 6.526z"/><path d="m254.767 279.512h-4.909c-3.604 0-6.526-2.922-6.526-6.526 0-3.604 2.922-6.526 6.526-6.526h4.909c3.604 0 6.526 2.922 6.526 6.526.001 3.604-2.921 6.526-6.526 6.526z"/><path d="m254.767 303.297h-4.909c-3.604 0-6.526-2.922-6.526-6.526 0-3.604 2.922-6.526 6.526-6.526h4.909c3.604 0 6.526 2.922 6.526 6.526.001 3.604-2.921 6.526-6.526 6.526z"/></g></g><g><g><g><path d="m167.895 181.244c-2.762 0-5-2.239-5-5v-.115c0-2.761 2.238-5 5-5s5 2.239 5 5v.115c0 2.761-2.239 5-5 5z" fill="#2626bc"/></g><g><path d="m188.896 181.244c-2.762 0-5-2.239-5-5v-.115c0-2.761 2.238-5 5-5s5 2.239 5 5v.115c0 2.761-2.239 5-5 5z" fill="#2626bc"/></g><g><path d="m209.897 181.244c-2.762 0-5-2.239-5-5v-.115c0-2.761 2.238-5 5-5s5 2.239 5 5v.115c0 2.761-2.239 5-5 5z" fill="#2626bc"/></g><g><path d="m230.898 181.244c-2.762 0-5-2.239-5-5v-.115c0-2.761 2.238-5 5-5s5 2.239 5 5v.115c0 2.761-2.239 5-5 5z" fill="#2626bc"/></g></g><g><g><path d="m167.895 197.234c-2.762 0-5-2.239-5-5v-.115c0-2.761 2.238-5 5-5s5 2.239 5 5v.115c0 2.761-2.239 5-5 5z" fill="#2626bc"/></g><g><path d="m188.896 197.234c-2.762 0-5-2.239-5-5v-.115c0-2.761 2.238-5 5-5s5 2.239 5 5v.115c0 2.761-2.239 5-5 5z" fill="#2626bc"/></g><g><path d="m209.897 197.234c-2.762 0-5-2.239-5-5v-.115c0-2.761 2.238-5 5-5s5 2.239 5 5v.115c0 2.761-2.239 5-5 5z" fill="#2626bc"/></g><g><path d="m230.898 197.234c-2.762 0-5-2.239-5-5v-.115c0-2.761 2.238-5 5-5s5 2.239 5 5v.115c0 2.761-2.239 5-5 5z" fill="#2626bc"/></g></g></g><g><path d="m151.332 100.899v47.695h41.448l-8.864-49.459c-.854-4.766-5.001-8.236-9.843-8.236h-12.74c-5.524 0-10.001 4.477-10.001 10z" fill="#6583fe"/><g><path d="m420.016 100.899v47.695h-41.448l8.864-49.459c.854-4.766 5.001-8.236 9.843-8.236h12.74c5.524 0 10.001 4.477 10.001 10z" fill="#6583fe"/></g></g></g><path d="m92.218 391.223h-21.594c-9.321 0-16.877-7.556-16.877-16.877v-162.471c0-9.321 7.556-16.877 16.877-16.877h21.594c9.321 0 16.877 7.556 16.877 16.877v162.471c0 9.321-7.556 16.877-16.877 16.877z" fill="#6583fe"/></g><g><g><g><path d="m342.586 157.717h54.933c34.688 0 62.808-28.12 62.808-62.808 0-34.688-28.12-62.808-62.808-62.808-34.688 0-62.808 28.12-62.808 62.808v54.933c.001 4.349 3.526 7.875 7.875 7.875z" fill="#02ffb3"/></g></g><g fill="#fff"><circle cx="368.788" cy="94.909" r="9.33"/><circle cx="397.52" cy="94.909" r="9.33"/><circle cx="426.251" cy="94.909" r="9.33"/></g></g></g></g><path d="m237.225 72.102c-2.761 0-5-2.238-5-5 0-3.309-2.691-6-6-6-2.761 0-5-2.238-5-5s2.239-5 5-5c3.309 0 6-2.691 6-6 0-2.762 2.239-5 5-5s5 2.238 5 5c0 3.309 2.691 6 6 6 2.761 0 5 2.238 5 5s-2.239 5-5 5c-3.309 0-6 2.691-6 6 0 2.761-2.239 5-5 5z" fill="#6583fe"/><path d="m438.582 459.898c-2.761 0-5-2.238-5-5 0-3.309-2.691-6-6-6-2.761 0-5-2.238-5-5s2.239-5 5-5c3.309 0 6-2.691 6-6 0-2.762 2.239-5 5-5s5 2.238 5 5c0 3.309 2.691 6 6 6 2.761 0 5 2.238 5 5s-2.239 5-5 5c-3.309 0-6 2.691-6 6 0 2.762-2.239 5-5 5z" fill="#01eca5"/><path d="m291.919 61.102c-2.761 0-5-2.238-5-5 0-3.309-2.691-6-6-6-2.761 0-5-2.238-5-5s2.239-5 5-5c3.309 0 6-2.691 6-6 0-2.762 2.239-5 5-5s5 2.238 5 5c0 3.309 2.691 6 6 6 2.761 0 5 2.238 5 5s-2.239 5-5 5c-3.309 0-6 2.691-6 6 0 2.761-2.239 5-5 5z" fill="#ff7eb8"/><path d="m113.045 463.209c-1.326 0-2.598-.526-3.536-1.465l-11.311-11.311c-1.953-1.952-1.953-5.118 0-7.07l11.311-11.311c.938-.938 2.209-1.465 3.536-1.465s2.598.526 3.536 1.465l11.31 11.311c1.953 1.952 1.953 5.118 0 7.07l-11.31 11.311c-.937.939-2.209 1.465-3.536 1.465zm-4.239-16.311 4.239 4.239 4.239-4.239-4.239-4.239z" fill="#6583fe"/><path d="m109.095 83.412c-1.326 0-2.598-.526-3.536-1.465l-11.31-11.31c-1.953-1.952-1.953-5.118 0-7.07l11.311-11.311c.938-.938 2.209-1.465 3.536-1.465s2.598.526 3.536 1.465l11.31 11.311c1.953 1.952 1.953 5.118 0 7.07l-11.31 11.311c-.939.938-2.211 1.464-3.537 1.464zm-4.239-16.31 4.239 4.239 4.239-4.239-4.239-4.239z" fill="#01eca5"/></g></g><path d="m454.475 143.594h-9.827c12.738-12.335 20.68-29.595 20.68-48.685 0-37.39-30.418-67.808-67.808-67.808s-67.808 30.418-67.808 67.808v5.869h-140.423l-.453-2.525c-1.283-7.159-7.493-12.354-14.765-12.354h-12.74c-8.271 0-15 6.729-15 15v42.695h-13.888v-18.081c0-9.245-7.521-16.767-16.767-16.767h-56.189c-8.128 0-14.74 6.612-14.74 14.74s6.612 14.74 14.74 14.74h12.206c2.607 0 4.728 2.121 4.728 4.728s-2.121 4.728-4.728 4.728h-12.723c-7.843 0-14.223 6.381-14.223 14.224s6.38 14.224 14.223 14.224h10.685c3.731 0 6.766 3.035 6.766 6.766v7.104h-5.797c-12.063 0-21.877 9.814-21.877 21.877v28.795c0 2.762 2.239 5 5 5s5-2.238 5-5v-28.795c0-6.549 5.328-11.877 11.877-11.877h21.594c6.549 0 11.877 5.328 11.877 11.877v130.087 32.384c0 6.55-5.328 11.878-11.877 11.878h-21.594c-6.549 0-11.877-5.328-11.877-11.878v-100.018c0-2.762-2.239-5-5-5s-5 2.238-5 5v100.016c0 12.063 9.814 21.878 21.877 21.878h21.594c5.459 0 10.454-2.015 14.291-5.334 2.322 3.223 6.097 5.334 10.364 5.334h42.5v40.675c0 8.271 6.729 15 15 15h222.602c8.271 0 15-6.729 15-15v-40.675h42.5c7.046 0 12.778-5.732 12.778-12.778v-41.483-185.59c0-7.047-5.732-12.779-12.778-12.779zm-114.763-48.685c0-31.875 25.933-57.808 57.808-57.808s57.808 25.933 57.808 57.808-25.933 57.808-57.808 57.808h-54.933c-1.585 0-2.875-1.289-2.875-2.874zm-10 15.869v11.408h-102.607c-2.761 0-5 2.238-5 5s2.239 5 5 5h102.606v17.656c0 7.099 5.775 12.874 12.875 12.874h54.933c12.347 0 23.923-3.333 33.905-9.123h23.05c1.532 0 2.778 1.246 2.778 2.778v180.59h-343.157v-125.086-55.503c0-1.532 1.246-2.778 2.778-2.778h34.458 41.448 108.271c2.761 0 5-2.238 5-5s-2.239-5-5-5h-104.087l-5.881-32.815h138.63zm-173.38-9.88c0-2.757 2.243-5 5-5h12.74c2.424 0 4.494 1.732 4.922 4.118l7.81 43.577h-30.472zm-64.114 89.1h-5.797v-7.104c0-9.244-7.521-16.766-16.766-16.766h-10.685c-2.329 0-4.223-1.895-4.223-4.224s1.895-4.224 4.223-4.224h12.723c8.121 0 14.728-6.606 14.728-14.728s-6.607-14.728-14.728-14.728h-12.206c-2.614 0-4.74-2.126-4.74-4.74s2.126-4.74 4.74-4.74h56.189c3.731 0 6.767 3.035 6.767 6.767v18.081h-5.57c-7.046 0-12.778 5.732-12.778 12.778v37.145c-3.423-2.22-7.5-3.517-11.877-3.517zm77.155 181.595h232.602v65.306c0 2.757-2.243 5-5 5h-222.602c-2.757 0-5-2.243-5-5zm287.88 11.852c0 1.532-1.246 2.778-2.778 2.778h-42.5v-14.631h24.573c2.761 0 5-2.238 5-5s-2.239-5-5-5h-301.747c-2.761 0-5 2.238-5 5s2.239 5 5 5h24.572v14.631h-42.5c-1.532 0-2.778-1.246-2.778-2.778v-9.1-27.384h343.158z" fill="#2626bc"/></g></svg>