<?xml version="1.0" encoding="UTF-8"?>
<!DOCTYPE svg PUBLIC "-//W3C//DTD SVG 1.1//EN" "http://www.w3.org/Graphics/SVG/1.1/DTD/svg11.dtd">
<!-- Creator: CorelDRAW 2019 (64-Bit) -->
<svg xmlns="http://www.w3.org/2000/svg" xml:space="preserve" width="180mm" height="180mm" version="1.1" style="shape-rendering:geometricPrecision; text-rendering:geometricPrecision; image-rendering:optimizeQuality; fill-rule:evenodd; clip-rule:evenodd"
viewBox="0 0 18000 18000"
 xmlns:xlink="http://www.w3.org/1999/xlink"
 xmlns:xodm="http://www.corel.com/coreldraw/odm/2003">
 <defs>
  <style type="text/css">
   <![CDATA[
    .fil1 {fill:#DA364C;fill-rule:nonzero}
    .fil0 {fill:#EF5261;fill-rule:nonzero}
   ]]>
  </style>
 </defs>
 <g id="Слой_x0020_1">
  <metadata id="CorelCorpID_0Corel-Layer"/>
  <g id="icon">
   <path class="fil0" d="M6654.9 4255.81l-912.46 1422.11c-186.35,289.43 -285.81,627.25 -285.81,971.64 0,452.17 171.1,888.37 478.48,1219.83l1989.87 2155.03 2155.04 1989.86c331.5,307.2 767.52,478.32 1219.77,478.32 344.45,0 682.1,-99.48 971.55,-285.72l1541.99 -989.34 3867.77 3999.91 -1567.54 1986.83c-389.34,491.95 -982.7,779.47 -1610.39,779.47 -184,0 -367.49,-24.83 -544.71,-73.45 -3172.97,-843.93 -5923.84,-2732.51 -8518.84,-5400.91 -2668.41,-2594.98 -4556.98,-5345.85 -5401.16,-8518.8 -48.46,-176.97 -73.29,-360.49 -73.29,-544.25 0,-627.78 287.56,-1221.17 779.69,-1610.51l1998.94 -1577.3 3911.1 3997.28z"/>
   <g>
    <path class="fil1" d="M13857.53 11189.18l-232.29 148.9 3978.33 3977.62 87.12 -110.34c177.62,-225.23 274.48,-504.27 274.48,-791.28 0,-339.25 -135.23,-664.93 -375.29,-904.53l-2145.73 -2145.72c-239.14,-239.12 -563.95,-373.71 -902.3,-373.71 -242.23,0 -479.97,69.32 -684.34,199.08l0.02 -0.02z"/>
    <path class="fil1" d="M2743.93 258.44l-110.34 87.12 3977.63 3978.09 148.9 -232.29c129.96,-204.52 199.13,-442.1 199.13,-684.49 0,-338.19 -134.44,-662.69 -373.41,-901.81l-2145.73 -2145.72c-239.58,-240.37 -565.26,-375.6 -904.66,-375.6 -287.17,0 -566.06,96.87 -791.46,274.68l-0.06 0.02z"/>
   </g>
  </g>
 </g>
</svg>
