<svg height="512pt" viewBox="0 0 511 512" width="512pt" xmlns="http://www.w3.org/2000/svg"><path d="m255.929688 510.859375c-68.226563 0-132.371094-26.570313-180.617188-74.8125-48.242188-48.246094-74.8125-112.390625-74.8125-180.617187 0-68.226563 26.570312-132.371094 74.8125-180.617188 48.246094-48.242188 112.390625-74.8125 180.617188-74.8125 68.226562 0 132.371093 26.570312 180.617187 74.8125 48.242187 48.246094 74.8125 112.390625 74.8125 180.617188 0 68.226562-26.570313 132.371093-74.8125 180.613281-48.246094 48.246093-112.390625 74.816406-180.617187 74.816406zm0 0" fill="#7cd2e3"/><path d="m476.652344 255.429688c0 58.957031-22.964844 114.386718-64.644532 156.078124-37.128906 37.117188-85.164062 59.402344-136.867187 63.828126h-.0625c-6.332031.550781-12.722656.816406-19.148437.816406-58.957032 0-114.386719-22.964844-156.078126-64.644532-41.679687-41.691406-64.648437-97.121093-64.648437-156.078124 0-58.957032 22.96875-114.386719 64.648437-156.078126 41.691407-41.679687 97.121094-64.648437 156.078126-64.648437 6.425781 0 12.816406.269531 19.148437.820313h.0625c51.703125 4.425781 99.738281 26.710937 136.867187 63.828124 41.679688 41.691407 64.644532 97.121094 64.644532 156.078126zm0 0" fill="#269ab1"/><path d="m476.652344 255.429688c0 58.957031-22.964844 114.386718-64.644532 156.078124-37.128906 37.117188-85.164062 59.402344-136.867187 63.828126h-.0625c-51.714844-4.425782-99.746094-26.710938-136.867187-63.828126-41.691407-41.691406-64.65625-97.121093-64.65625-156.078124 0-58.957032 22.964843-114.386719 64.65625-156.078126 37.121093-37.117187 85.152343-59.402343 136.867187-63.828124h.0625c51.703125 4.425781 99.738281 26.710937 136.867187 63.828124 41.679688 41.691407 64.644532 97.121094 64.644532 156.078126zm0 0" fill="#2cb3cd"/><g fill="#dce6eb"><path d="m274.945312 78.179688c34.046876 3.609374 66.164063 16.910156 92.878907 38.476562 1.433593 1.15625 3.15625 1.71875 4.867187 1.71875 2.265625 0 4.511719-.984375 6.042969-2.882812 2.691406-3.335938 2.171875-8.222657-1.164063-10.914063-29.046874-23.441406-63.96875-37.90625-100.988281-41.828125-4.273437-.457031-8.085937 2.636719-8.535156 6.898438-.449219 4.261718 2.636719 8.082031 6.898437 8.53125zm0 0"/><path d="m441.710938 267.546875c-4.269532-.449219-8.082032 2.636719-8.53125 6.898437-3.609376 34.042969-16.914063 66.164063-38.476563 92.878907-2.691406 3.332031-2.167969 8.21875 1.167969 10.910156 3.332031 2.691406 8.21875 2.167969 10.910156-1.164063 23.441406-29.046874 37.90625-63.96875 41.828125-100.992187.453125-4.261719-2.636719-8.082031-6.898437-8.53125zm0 0"/><path d="m78.679688 274.445312c-.449219-4.261718-4.261719-7.351562-8.53125-6.898437-4.261719.453125-7.351563 4.269531-6.898438 8.535156 3.921875 37.019531 18.386719 71.941407 41.832031 100.988281 1.53125 1.898438 3.773438 2.886719 6.039063 2.886719 6.410156 0 10.175781-7.5 6.035156-12.632812-21.566406-26.714844-34.867188-58.832031-38.476562-92.878907zm0 0"/><path d="m367.824219 394.203125c-26.714844 21.5625-58.832031 34.867187-92.878907 38.476563-4.261718.449218-7.347656 4.269531-6.898437 8.53125.421875 3.984374 3.789063 6.941406 7.707031 6.941406.273438 0 .546875-.015625.828125-.042969 37.019531-3.921875 71.941407-18.386719 100.988281-41.828125 3.335938-2.695312 3.855469-7.578125 1.164063-10.914062-2.6875-3.332032-7.574219-3.855469-10.910156-1.164063zm0 0"/><path d="m236.914062 432.679688c-34.046874-3.609376-66.164062-16.914063-92.878906-38.476563-3.335937-2.691406-8.222656-2.167969-10.910156 1.164063-2.691406 3.335937-2.171875 8.21875 1.164062 10.914062 29.046876 23.441406 63.96875 37.90625 100.988282 41.828125 4.246094.457031 8.082031-2.628906 8.535156-6.898437.449219-4.261719-2.636719-8.082032-6.898438-8.53125zm0 0"/><path d="m433.179688 236.414062c.417968 3.984376 3.785156 6.941407 7.703124 6.941407.273438 0 .550782-.015625.828126-.042969 4.261718-.453125 7.347656-4.273438 6.898437-8.535156-3.921875-37.019532-18.386719-71.941406-41.832031-100.988282-2.6875-3.335937-7.574219-3.859374-10.910156-1.167968-3.332032 2.695312-3.855469 7.578125-1.164063 10.914062 21.566406 26.714844 34.867187 58.832032 38.476563 92.878906zm0 0"/><path d="m144.035156 116.65625c26.714844-21.566406 58.832032-34.867188 92.878906-38.476562 4.261719-.449219 7.347657-4.269532 6.898438-8.53125-.453125-4.261719-4.261719-7.351563-8.535156-6.898438-37.019532 3.921875-71.941406 18.386719-100.988282 41.828125-3.335937 2.691406-3.855468 7.578125-1.164062 10.914063 2.691406 3.332031 7.574219 3.855468 10.910156 1.164062zm0 0"/><path d="m70.972656 243.355469c3.917969 0 7.285156-2.957031 7.707032-6.941407 3.609374-34.046874 16.910156-66.164062 38.472656-92.878906 2.695312-3.335937 2.171875-8.21875-1.164063-10.910156-3.335937-2.695312-8.21875-2.171875-10.910156 1.164062-23.441406 29.046876-37.90625 63.96875-41.828125 100.992188-.484375 4.570312 3.09375 8.574219 7.722656 8.574219zm0 0"/><path d="m346.308594 135.496094c-20.328125-15.359375-44.347656-25.332032-69.46875-28.84375-4.25-.597656-8.167969 2.367187-8.761719 6.609375-.589844 4.246093 2.367187 8.167969 6.613281 8.757812 22.507813 3.148438 44.039063 12.089844 62.261719 25.859375 3.449219 2.601563 8.304687 1.875 10.867187-1.511718 2.582032-3.421876 1.90625-8.289063-1.511718-10.871094zm0 0"/><path d="m369.667969 348.886719c2.347656 0 4.671875-1.0625 6.195312-3.082031 15.359375-20.324219 25.335938-44.347657 28.84375-69.46875.59375-4.242188-2.367187-8.164063-6.609375-8.757813-4.246094-.59375-8.167968 2.367187-8.757812 6.609375-3.144532 22.511719-12.085938 44.039062-25.855469 62.265625-3.890625 5.140625-.140625 12.433594 6.183594 12.433594zm0 0"/><path d="m107.152344 276.335938c3.511718 25.121093 13.484375 49.144531 28.84375 69.46875 1.527344 2.019531 3.847656 3.082031 6.195312 3.082031 6.328125 0 10.070313-7.292969 6.183594-12.4375-13.769531-18.222657-22.707031-39.75-25.855469-62.261719-.589843-4.242188-4.507812-7.207031-8.757812-6.609375-4.242188.59375-7.203125 4.515625-6.609375 8.757813zm0 0"/><path d="m268.078125 397.597656c.542969 3.878906 3.867187 6.683594 7.675781 6.683594.355469 0 .71875-.023438 1.082032-.074219 25.121093-3.507812 49.144531-13.484375 69.46875-28.84375 3.421874-2.582031 4.097656-7.449219 1.511718-10.867187-2.582031-3.417969-7.445312-4.097656-10.867187-1.511719-18.21875 13.769531-39.75 22.710937-62.261719 25.855469-4.242188.589844-7.203125 4.511718-6.609375 8.757812zm0 0"/><path d="m165.554688 375.363281c20.324218 15.359375 44.347656 25.332031 69.46875 28.84375.363281.050781.726562.074219 1.082031.074219 3.808593 0 7.132812-2.804688 7.675781-6.683594.589844-4.246094-2.367188-8.167968-6.613281-8.761718-22.507813-3.144532-44.039063-12.085938-62.261719-25.855469-3.417969-2.582031-8.285156-1.90625-10.867188 1.511719-2.582031 3.421874-1.90625 8.289062 1.515626 10.871093zm0 0"/><path d="m404.707031 234.523438c-3.507812-25.121094-13.484375-49.144532-28.84375-69.46875-2.582031-3.417969-7.445312-4.097657-10.867187-1.515626-3.417969 2.585938-4.097656 7.449219-1.511719 10.867188 13.769531 18.226562 22.710937 39.753906 25.855469 62.265625.589844 4.230469 4.5 7.207031 8.757812 6.609375 4.242188-.59375 7.203125-4.515625 6.609375-8.757812zm0 0"/><path d="m170.234375 149.445312c1.628906 0 3.273437-.511718 4.671875-1.570312 18.222656-13.769531 39.753906-22.710938 62.265625-25.855469 4.242187-.59375 7.203125-4.515625 6.609375-8.757812-.59375-4.246094-4.523438-7.210938-8.757812-6.609375-25.121094 3.507812-49.144532 13.484375-69.46875 28.839844-3.417969 2.585937-4.097657 7.449218-1.511719 10.871093 1.523437 2.019531 3.84375 3.082031 6.191406 3.082031zm0 0"/><path d="m146.863281 163.539062c-3.417969-2.582031-8.285156-1.90625-10.867187 1.511719-15.359375 20.328125-25.332032 44.351563-28.84375 69.472657-.59375 4.242187 2.367187 8.164062 6.609375 8.753906 4.265625.597656 8.167969-2.382813 8.757812-6.609375 3.148438-22.507813 12.089844-44.039063 25.855469-62.261719 2.585938-3.417969 1.90625-8.28125-1.511719-10.867188zm0 0"/><path d="m274.339844 157.128906c13.707031 2.558594 26.503906 7.878906 38.03125 15.808594 1.34375.925781 2.875 1.371094 4.390625 1.371094 7.601562 0 10.667969-9.84375 4.40625-14.152344-13.328125-9.171875-28.125-15.324219-43.980469-18.28125-4.207031-.789062-8.265625 1.988281-9.050781 6.203125-.789063 4.210937 1.992187 8.261719 6.203125 9.050781zm0 0"/><path d="m351.203125 320.667969c9.171875-13.328125 15.324219-28.125 18.28125-43.980469.789063-4.214844-1.988281-8.265625-6.203125-9.050781-4.207031-.785157-8.261719 1.988281-9.050781 6.203125-2.558594 13.707031-7.875 26.503906-15.808594 38.03125-3.578125 5.199218.246094 12.15625 6.382813 12.15625 2.46875 0 4.894531-1.175782 6.398437-3.359375zm0 0"/><path d="m167.054688 324.027344c1.515624 0 3.046874-.445313 4.390624-1.367188 3.53125-2.429687 4.421876-7.261718 1.992188-10.789062-7.933594-11.527344-13.25-24.324219-15.808594-38.03125-.789062-4.214844-4.847656-6.988282-9.050781-6.203125-4.214844.785156-6.992187 4.835937-6.203125 9.050781 2.957031 15.855469 9.109375 30.652344 18.28125 43.980469 1.503906 2.183593 3.929688 3.359375 6.398438 3.359375zm0 0"/><path d="m277.1875 368.984375c15.855469-2.957031 30.652344-9.109375 43.980469-18.28125 3.527343-2.429687 4.421875-7.257813 1.992187-10.789063-2.429687-3.53125-7.257812-4.421874-10.789062-1.992187-11.527344 7.933594-24.324219 13.253906-38.03125 15.8125-4.210938.785156-6.992188 4.835937-6.203125 9.050781.78125 4.195313 4.824219 6.992188 9.050781 6.199219zm0 0"/><path d="m237.519531 353.730469c-13.707031-2.558594-26.503906-7.878907-38.03125-15.8125-3.53125-2.429688-8.359375-1.535157-10.789062 1.996093-2.429688 3.527344-1.539063 8.359376 1.992187 10.789063 13.328125 9.171875 28.125 15.324219 43.980469 18.28125.480469.089844.960937.132813 1.433594.132813 3.660156 0 6.921875-2.605469 7.617187-6.335938.785156-4.210938-1.988281-8.265625-6.203125-9.050781zm0 0"/><path d="m340.414062 188.199219c-3.53125 2.429687-4.421874 7.261719-1.996093 10.789062 7.933593 11.527344 13.253906 24.324219 15.8125 38.03125.695312 3.730469 3.957031 6.335938 7.617187 6.335938.472656 0 .953125-.042969 1.433594-.132813 4.210938-.785156 6.992188-4.839844 6.203125-9.050781-2.957031-15.855469-9.109375-30.65625-18.28125-43.980469-2.429687-3.53125-7.257813-4.421875-10.789063-1.992187zm0 0"/><path d="m243.722656 148.078125c-.785156-4.214844-4.847656-6.992187-9.050781-6.203125-15.855469 2.957031-30.652344 9.109375-43.980469 18.28125-3.53125 2.429688-4.421875 7.257812-1.992187 10.789062 1.503906 2.1875 3.929687 3.363282 6.398437 3.363282 1.515625 0 3.046875-.445313 4.390625-1.371094 11.527344-7.929688 24.324219-13.25 38.03125-15.808594 4.214844-.789062 6.988281-4.839844 6.203125-9.050781zm0 0"/><path d="m160.65625 190.191406c-9.171875 13.328125-15.324219 28.125-18.28125 43.980469-.894531 4.78125 2.78125 9.183594 7.636719 9.183594 3.660156 0 6.917969-2.605469 7.617187-6.335938 2.558594-13.707031 7.875-26.503906 15.808594-38.03125 2.429688-3.527343 1.539062-8.359375-1.992188-10.789062-3.53125-2.429688-8.359374-1.535157-10.789062 1.992187zm0 0"/><path d="m295.421875 184.929688c-5.535156-3.105469-11.4375-5.558594-17.550781-7.285157-4.121094-1.167969-8.410156 1.234375-9.574219 5.355469-1.164063 4.125 1.230469 8.410156 5.355469 9.578125 4.9375 1.394531 9.699218 3.371094 14.164062 5.882813 1.203125.675781 2.507813.996093 3.796875.996093 2.710938 0 5.347657-1.425781 6.769531-3.960937 2.101563-3.734375.773438-8.464844-2.960937-10.566406zm0 0"/><path d="m319.65625 298.878906c2.714844 0 5.347656-1.425781 6.769531-3.957031 3.113281-5.535156 5.5625-11.4375 7.289063-17.550781 1.164062-4.121094-1.234375-8.410156-5.355469-9.574219-4.125-1.164063-8.414063 1.234375-9.578125 5.359375-1.394531 4.929688-3.371094 9.695312-5.882812 14.164062-2.933594 5.222657.925781 11.558594 6.757812 11.558594zm0 0"/><path d="m195.996094 297.882812c3.738281-2.097656 5.0625-6.828124 2.964844-10.5625-2.511719-4.46875-4.488282-9.234374-5.882813-14.167968-1.164063-4.121094-5.453125-6.519532-9.578125-5.355469-4.121094 1.164063-6.523438 5.453125-5.355469 9.574219 1.726563 6.113281 4.175781 12.015625 7.285157 17.550781 1.425781 2.53125 4.058593 3.957031 6.773437 3.957031 1.285156 0 2.59375-.320312 3.792969-.996094zm0 0"/><path d="m287.816406 312.398438c-4.464844 2.511718-9.230468 4.488281-14.164062 5.882812-4.121094 1.164062-6.519532 5.453125-5.355469 9.578125 1.160156 4.101563 5.429687 6.527344 9.574219 5.355469 6.113281-1.726563 12.015625-4.179688 17.550781-7.289063 3.734375-2.097656 5.0625-6.828125 2.960937-10.5625-2.097656-3.738281-6.828124-5.0625-10.566406-2.964843zm0 0"/><path d="m216.4375 325.925781c5.53125 3.109375 11.4375 5.5625 17.546875 7.289063 4.152344 1.171875 8.421875-1.257813 9.578125-5.355469 1.164062-4.125-1.234375-8.410156-5.355469-9.578125-4.9375-1.394531-9.703125-3.371094-14.164062-5.882812-3.738281-2.097657-8.46875-.773438-10.566407 2.960937-2.097656 3.738281-.773437 8.46875 2.960938 10.566406zm0 0"/><path d="m315.863281 212.976562c-3.734375 2.097657-5.0625 6.828126-2.964843 10.5625 2.511718 4.46875 4.492187 9.234376 5.882812 14.167969.96875 3.417969 4.078125 5.648438 7.464844 5.648438 5.140625 0 8.867187-4.917969 7.472656-9.871094-1.726562-6.109375-4.179688-12.011719-7.289062-17.546875-2.101563-3.734375-6.832032-5.0625-10.566407-2.960938zm0 0"/><path d="m224.042969 198.460938c4.460937-2.511719 9.226562-4.488282 14.164062-5.882813 4.121094-1.164063 6.519531-5.453125 5.355469-9.578125-1.164062-4.121094-5.449219-6.519531-9.578125-5.355469-6.109375 1.726563-12.015625 4.179688-17.546875 7.285157-3.734375 2.101562-5.0625 6.832031-2.960938 10.566406 1.421876 2.535156 4.058594 3.960937 6.769532 3.960937 1.289062 0 2.59375-.324219 3.796875-.996093zm0 0"/><path d="m195.996094 212.976562c-3.730469-2.101562-8.464844-.773437-10.5625 2.960938-3.109375 5.535156-5.5625 11.4375-7.289063 17.546875-1.398437 4.949219 2.328125 9.871094 7.472657 9.871094 3.382812 0 6.496093-2.230469 7.460937-5.648438 1.394531-4.933593 3.371094-9.699219 5.882813-14.167969 2.097656-3.734374.773437-8.464843-2.964844-10.5625zm0 0"/></g><path d="m512.398438 402.941406c0 50.710938-34.617188 93.332032-81.5 105.542969-8.804688 2.292969-18.042969 3.515625-27.5625 3.515625-60.226563 0-109.058594-48.828125-109.058594-109.058594 0-60.230468 48.832031-109.058594 109.058594-109.058594 9.519531 0 18.757812 1.21875 27.5625 3.515626 46.882812 12.207031 81.5 54.832031 81.5 105.542968zm0 0" fill="#fb5858"/><path d="m512.398438 402.941406c0 50.710938-34.617188 93.332032-81.5 105.542969-46.894532-12.210937-81.511719-54.832031-81.511719-105.542969 0-50.710937 34.617187-93.335937 81.511719-105.542968 46.882812 12.207031 81.5 54.832031 81.5 105.542968zm0 0" fill="#fc7979"/><path d="m461.152344 391.289062c-6 13.597657-13.957032 24.722657-23.007813 32.085938 13.226563-48.855469-3.921875-97.890625-8.878906-100.730469-2.902344-1.679687-5.167969 4.265625-6.34375 9.046875-6.324219 25.691406-16.632813 48.5625-29.609375 65.722656 4.179688-15.042968 3.863281-33.316406-.558594-48.121093-.921875-3.09375-3.609375-2.917969-4.398437.277343-2.148438 8.742188-5.433594 16.683594-9.578125 23.070313-5.390625-15.269531-10.785156-30.546875-16.179688-45.816406-.933594-2.652344-3.207031-2.679688-4.167968-.050781-17.605469 48.203124-18.84375 67.253906-17.484376 97.628906 1.480469 33.082031 28.757813 59.132812 61.871094 59.132812 31.101563 0 57.359375-23.070312 61.414063-53.902344 1.90625-14.46875 2.476562-28.351562 1.25-36.84375-.488281-3.40625-3.085938-4.3125-4.328125-1.5zm0 0" fill="#c42d2d"/><path d="m294.28125 255.429688c0 21.179687-17.171875 38.351562-38.351562 38.351562-21.179688 0-38.351563-17.171875-38.351563-38.351562 0-21.179688 17.171875-38.351563 38.351563-38.351563 21.179687 0 38.351562 17.171875 38.351562 38.351563zm0 0" fill="#269ab1"/></svg>