<svg xmlns="http://www.w3.org/2000/svg" height="512pt" version="1.1" viewBox="0 0 512 512" width="512pt">
<g id="surface1">
<path d="M 478.96875 512 L 33.03125 512 C 14.789062 512 0 497.210938 0 478.96875 L 0 33.03125 C 0 14.789062 14.789062 0 33.03125 0 L 478.96875 0 C 497.210938 0 512 14.789062 512 33.03125 L 512 478.96875 C 512 497.210938 497.210938 512 478.96875 512 Z M 478.96875 512 " style=" stroke:none;fill-rule:nonzero;fill:rgb(90.196078%,39.215686%,43.137255%);fill-opacity:1;" />
<path d="M 412.902344 445.933594 L 99.097656 445.933594 C 89.976562 445.933594 82.582031 438.539062 82.582031 429.417969 L 82.582031 247.742188 C 82.582031 238.621094 89.976562 231.226562 99.097656 231.226562 L 412.902344 231.226562 C 422.023438 231.226562 429.417969 238.621094 429.417969 247.742188 L 429.417969 429.417969 C 429.417969 438.539062 422.023438 445.933594 412.902344 445.933594 Z M 412.902344 445.933594 " style=" stroke:none;fill-rule:nonzero;fill:rgb(36.470588%,32.54902%,37.647059%);fill-opacity:1;" />
<path d="M 313.804688 338.582031 C 313.804688 370.507812 287.925781 396.386719 256 396.386719 C 224.074219 396.386719 198.195312 370.507812 198.195312 338.582031 C 198.195312 306.65625 224.074219 280.773438 256 280.773438 C 287.925781 280.773438 313.804688 306.65625 313.804688 338.582031 Z M 313.804688 338.582031 " style=" stroke:none;fill-rule:nonzero;fill:rgb(29.411765%,24.705882%,30.588235%);fill-opacity:1;" />
<path d="M 272.515625 338.582031 C 272.515625 347.703125 265.121094 355.097656 256 355.097656 C 246.878906 355.097656 239.484375 347.703125 239.484375 338.582031 C 239.484375 329.460938 246.878906 322.066406 256 322.066406 C 265.121094 322.066406 272.515625 329.460938 272.515625 338.582031 Z M 272.515625 338.582031 " style=" stroke:none;fill-rule:nonzero;fill:rgb(92.941176%,92.156863%,92.941176%);fill-opacity:1;" />
<path d="M 211.402344 331.976562 L 178.371094 307.203125 C 174.734375 304.460938 169.554688 305.210938 166.816406 308.851562 C 164.074219 312.5 164.816406 317.679688 168.46875 320.410156 L 181.679688 330.320312 L 123.871094 330.320312 C 119.308594 330.320312 115.613281 334.019531 115.613281 338.578125 C 115.613281 343.140625 119.308594 346.839844 123.871094 346.839844 L 181.679688 346.839844 L 168.46875 356.75 C 164.816406 359.484375 164.074219 364.660156 166.816406 368.308594 C 168.4375 370.46875 170.910156 371.609375 173.429688 371.609375 C 175.152344 371.609375 176.886719 371.074219 178.371094 369.957031 L 211.402344 345.183594 C 213.484375 343.628906 214.710938 341.179688 214.710938 338.578125 C 214.710938 335.980469 213.484375 333.53125 211.402344 331.976562 Z M 211.402344 331.976562 " style=" stroke:none;fill-rule:nonzero;fill:rgb(92.941176%,92.156863%,92.941176%);fill-opacity:1;" />
<path d="M 173.417969 66.066406 L 123.871094 66.066406 C 119.304688 66.066406 115.613281 69.761719 115.613281 74.324219 L 115.613281 156.902344 C 115.613281 161.464844 119.308594 165.160156 123.871094 165.160156 C 128.4375 165.160156 132.128906 161.464844 132.128906 156.902344 L 132.128906 123.871094 L 165.160156 123.871094 C 169.726562 123.871094 173.417969 120.175781 173.417969 115.613281 C 173.417969 111.054688 169.726562 107.355469 165.160156 107.355469 L 132.128906 107.355469 L 132.128906 82.582031 L 173.417969 82.582031 C 177.984375 82.582031 181.675781 78.882812 181.675781 74.324219 C 181.675781 69.761719 177.984375 66.066406 173.417969 66.066406 Z M 173.417969 66.066406 " style=" stroke:none;fill-rule:nonzero;fill:rgb(92.941176%,92.156863%,92.941176%);fill-opacity:1;" />
<path d="M 379.871094 148.644531 L 338.582031 148.644531 L 338.582031 123.871094 L 371.613281 123.871094 C 376.179688 123.871094 379.871094 120.171875 379.871094 115.613281 C 379.871094 111.054688 376.175781 107.355469 371.613281 107.355469 L 338.582031 107.355469 L 338.582031 82.582031 L 379.871094 82.582031 C 384.4375 82.582031 388.128906 78.882812 388.128906 74.324219 C 388.128906 69.761719 384.433594 66.066406 379.871094 66.066406 L 330.324219 66.066406 C 325.757812 66.066406 322.066406 69.761719 322.066406 74.324219 L 322.066406 156.902344 C 322.066406 161.464844 325.757812 165.160156 330.324219 165.160156 L 379.871094 165.160156 C 384.4375 165.160156 388.128906 161.464844 388.128906 156.902344 C 388.128906 152.34375 384.433594 148.644531 379.871094 148.644531 Z M 379.871094 148.644531 " style=" stroke:none;fill-rule:nonzero;fill:rgb(92.941176%,92.156863%,92.941176%);fill-opacity:1;" />
<path d="M 206.453125 66.066406 C 201.886719 66.066406 198.195312 69.761719 198.195312 74.324219 L 198.195312 156.902344 C 198.195312 161.464844 201.886719 165.160156 206.453125 165.160156 C 211.015625 165.160156 214.710938 161.464844 214.710938 156.902344 L 214.710938 74.324219 C 214.710938 69.761719 211.015625 66.066406 206.453125 66.066406 Z M 206.453125 66.066406 " style=" stroke:none;fill-rule:nonzero;fill:rgb(92.941176%,92.156863%,92.941176%);fill-opacity:1;" />
<path d="M 306.925781 99.097656 C 306.925781 80.882812 292.113281 66.066406 273.894531 66.066406 L 240.863281 66.066406 C 236.296875 66.066406 232.605469 69.761719 232.605469 74.324219 L 232.605469 156.902344 C 232.605469 161.464844 236.300781 165.160156 240.863281 165.160156 C 245.425781 165.160156 249.121094 161.464844 249.121094 156.902344 L 249.121094 132.128906 L 273.894531 132.128906 C 274.921875 132.128906 275.890625 131.917969 276.894531 131.828125 L 291.28125 160.597656 C 292.734375 163.492188 295.644531 165.164062 298.675781 165.164062 C 299.917969 165.164062 301.175781 164.886719 302.363281 164.292969 C 306.441406 162.253906 308.097656 157.292969 306.054688 153.210938 L 292.59375 126.28125 C 301.234375 120.316406 306.925781 110.367188 306.925781 99.097656 Z M 249.121094 115.613281 L 249.121094 82.582031 L 273.894531 82.582031 C 283 82.582031 290.410156 89.988281 290.410156 99.097656 C 290.410156 108.207031 283 115.613281 273.894531 115.613281 Z M 249.121094 115.613281 " style=" stroke:none;fill-rule:nonzero;fill:rgb(92.941176%,92.156863%,92.941176%);fill-opacity:1;" />
<path d="M 107.355469 495.484375 C 57.1875 495.484375 16.515625 454.8125 16.515625 404.644531 L 16.515625 4.417969 C 6.683594 10.140625 0 20.835938 0 33.03125 L 0 478.96875 C 0 497.210938 14.789062 512 33.03125 512 L 478.96875 512 C 491.164062 512 501.859375 505.316406 507.578125 495.484375 Z M 107.355469 495.484375 " style=" stroke:none;fill-rule:nonzero;fill:rgb(86.27451%,27.45098%,33.333333%);fill-opacity:1;" />
<path d="M 412.902344 231.226562 L 99.097656 231.226562 C 89.976562 231.226562 82.582031 238.621094 82.582031 247.742188 L 363.355469 247.742188 C 390.71875 247.742188 412.902344 269.925781 412.902344 297.289062 L 412.902344 445.933594 C 422.023438 445.933594 429.417969 438.539062 429.417969 429.417969 L 429.417969 247.742188 C 429.417969 238.621094 422.023438 231.226562 412.902344 231.226562 Z M 412.902344 231.226562 " style=" stroke:none;fill-rule:nonzero;fill:rgb(29.411765%,24.705882%,30.588235%);fill-opacity:1;" />
<path d="M 300.597656 345.1875 L 333.628906 369.960938 C 337.265625 372.703125 342.445312 371.953125 345.183594 368.3125 C 347.925781 364.660156 347.183594 359.484375 343.53125 356.75 L 330.320312 346.839844 L 388.128906 346.839844 C 392.691406 346.839844 396.386719 343.140625 396.386719 338.582031 C 396.386719 334.023438 392.691406 330.324219 388.128906 330.324219 L 330.320312 330.324219 L 343.53125 320.414062 C 347.183594 317.679688 347.925781 312.503906 345.183594 308.851562 C 343.5625 306.691406 341.089844 305.550781 338.570312 305.550781 C 336.847656 305.550781 335.113281 306.085938 333.628906 307.203125 L 300.597656 331.976562 C 298.515625 333.535156 297.289062 335.980469 297.289062 338.582031 C 297.289062 341.183594 298.515625 343.628906 300.597656 345.1875 Z M 300.597656 345.1875 " style=" stroke:none;fill-rule:nonzero;fill:rgb(92.941176%,92.156863%,92.941176%);fill-opacity:1;" />
</g>
</svg>