<svg id="Capa_1" enable-background="new 0 0 512 512" height="512" viewBox="0 0 512 512" width="512" xmlns="http://www.w3.org/2000/svg"><g><path d="m376 452h-60c-8.291 0-15-6.709-15-15s6.709-15 15-15h60c24.814 0 45-20.186 45-45v-181c0-8.291 6.709-15 15-15s15 6.709 15 15v181c0 41.353-33.647 75-75 75z" fill="#39326c"/><path d="m121 302h150v90h-150z" fill="#51489a"/><path d="m196 302h75v90h-75z" fill="#39326c"/><path d="m196 0c-90.901 0-165 75.099-165 166 0 90.899 74.099 166 165 166s165-75.101 165-166c0-90.901-74.099-166-165-166z" fill="#ff6b6b"/><path d="m286 362h-171.599c-29.401 0-53.401 24-53.401 53.399v81.601c0 8.399 6.599 15 15 15h240c8.401 0 15-6.601 15-15v-90c0-24.901-20.099-45-45-45z" fill="#ff6b6b"/><g fill="#e62e77"><path d="m196 332v-332c90.901 0 165 75.099 165 166 0 90.899-74.099 166-165 166z"/><path d="m331 407v90c0 8.399-6.599 15-15 15h-120v-150h90c24.901 0 45 20.099 45 45z"/><path d="m196 91c-41.4 0-75 33.6-75 75s33.6 75 75 75 75-33.6 75-75-33.6-75-75-75z"/><path d="m271 437c0 8.399-6.599 15-15 15h-120c-8.401 0-15-6.601-15-15 0-8.401 6.599-15 15-15h120c8.401 0 15 6.599 15 15z"/><path d="m436 211c-24.814 0-45-20.186-45-45s20.186-45 45-45 45 20.186 45 45-20.186 45-45 45z"/></g><path d="m196 241v-150c41.4 0 75 33.6 75 75s-33.6 75-75 75z" fill="#cc0050"/><path d="m271 437c0 8.399-6.599 15-15 15h-60v-30h60c8.401 0 15 6.599 15 15z" fill="#cc0050"/></g></svg>