<svg id="Layer_1" enable-background="new 0 0 512 512" height="512" viewBox="0 0 512 512" width="512" xmlns="http://www.w3.org/2000/svg"><g><g><path d="m432.84 436.9c0 41.48-79.18 75.1-176.84 75.1-6.08 0-12.08-.13-18-.39-89.21-3.82-158.84-35.81-158.84-74.71 0-26.18 31.56-49.24 79.4-62.68l160.52.34 35.79.07c47.04 13.49 77.97 36.35 77.97 62.27z" fill="#9bd8da"/><path d="m432.84 436.9c0 41.48-79.18 75.1-176.84 75.1-6.08 0-12.08-.13-18-.39 89.21-3.82 158.84-35.81 158.84-74.71 0-25.92-30.93-48.78-77.97-62.27l.21-.07 35.79.07c47.04 13.49 77.97 36.35 77.97 62.27z" fill="#3eafa9"/><path d="m445.31 189.31c0-104.39-84.92-189.31-189.31-189.31-104.38 0-189.31 84.92-189.31 189.31 0 108.7 57.73 158.29 108.66 202.04 39.25 33.72 73.15 62.84 73.15 113.15 0 4.14 3.36 7.5 7.5 7.5s7.5-3.36 7.5-7.5c0-5.12.35-10.02 1.03-14.73 5.93-41.55 36.86-68.13 72.12-98.42 50.93-43.75 108.66-93.34 108.66-202.04z" fill="#f77173"/><path d="m445.31 189.31c0-104.39-84.92-189.31-189.31-189.31 77.03 1.26 148.47 91.08 148.47 190.71 0 179.79-127.08 194.51-139.94 299.06 5.93-41.55 36.86-68.13 72.12-98.42 50.93-43.75 108.66-93.34 108.66-202.04z" fill="#ed485c"/></g><path d="m375.9 188.4c0 45.2-25.14 84.63-62.17 105.06l-29.16-.23-87.97-.71c-36.11-20.68-60.5-59.61-60.5-104.12 0-62.72 48.42-114.35 109.84-119.47 3.31-.29 6.67-.43 10.06-.43 66.11 0 119.9 53.79 119.9 119.9z" fill="#e1f9ff"/><path d="m375.9 188.4c0 45.2-25.14 84.63-62.17 105.06l-29.16-.23c37.7-20.21 63.33-59.98 63.33-105.74 0-60.12-44.25-109.91-101.96-118.56 3.31-.29 6.67-.43 10.06-.43 66.11 0 119.9 53.79 119.9 119.9z" fill="#a6dff5"/><path d="m313.73 293.46c-7.18 3.96-14.81 7.21-22.78 9.64-11.06 3.38-22.8 5.2-34.95 5.2-21.6 0-41.88-5.74-59.4-15.78-.55-56.47.42-116.61.42-116.61l58.15-39.81 35.55 24.68 22.6 15.68s.99 60.21.41 117z" fill="#ffe59e"/><path d="m313.73 293.46c-7.18 3.96-14.81 7.21-22.78 9.64.43-64.74.04-117.15-.23-142.32l22.6 15.68s.99 60.21.41 117z" fill="#ffca6c"/><path d="m337.793 192.416c-1.585-1.545-39.279-38.118-78.652-62.684-2.429-1.516-5.51-1.516-7.94 0-39.374 24.565-77.066 61.139-78.651 62.684-2.966 2.891-3.027 7.638-.137 10.604 2.891 2.968 7.639 3.028 10.605.139.364-.354 35.56-34.497 72.153-58.177 36.593 23.68 71.79 57.822 72.154 58.177 1.458 1.42 3.346 2.128 5.233 2.128 1.952-.001 3.903-.758 5.373-2.267 2.89-2.967 2.829-7.714-.138-10.604z" fill="#feaf82"/><g fill="#fff"><path d="m237.5 239.493c-4.142 0-7.5 3.357-7.5 7.5v20.004c0 4.143 3.358 7.5 7.5 7.5s7.5-3.357 7.5-7.5v-20.004c0-4.143-3.358-7.5-7.5-7.5z"/><path d="m274.5 239.493c-4.142 0-7.5 3.357-7.5 7.5v20.004c0 4.143 3.358 7.5 7.5 7.5s7.5-3.357 7.5-7.5v-20.004c0-4.143-3.358-7.5-7.5-7.5z"/><path d="m237.5 187.493c-4.142 0-7.5 3.357-7.5 7.5v20.004c0 4.143 3.358 7.5 7.5 7.5s7.5-3.357 7.5-7.5v-20.004c0-4.143-3.358-7.5-7.5-7.5z"/><path d="m274.5 187.493c-4.142 0-7.5 3.357-7.5 7.5v20.004c0 4.143 3.358 7.5 7.5 7.5s7.5-3.357 7.5-7.5v-20.004c0-4.143-3.358-7.5-7.5-7.5z"/></g></g></svg>