<?xml version="1.0" encoding="UTF-8"?>
<!DOCTYPE svg PUBLIC "-//W3C//DTD SVG 1.1//EN" "http://www.w3.org/Graphics/SVG/1.1/DTD/svg11.dtd">
<!-- Creator: CorelDRAW 2019 (64-Bit) -->
<svg xmlns="http://www.w3.org/2000/svg" xml:space="preserve" width="120mm" height="120mm" version="1.1" style="shape-rendering:geometricPrecision; text-rendering:geometricPrecision; image-rendering:optimizeQuality; fill-rule:evenodd; clip-rule:evenodd"
viewBox="0 0 12000 12000"
 xmlns:xlink="http://www.w3.org/1999/xlink"
 xmlns:xodm="http://www.corel.com/coreldraw/odm/2003">
 <defs>
  <style type="text/css">
   <![CDATA[
    .str1 {stroke:#FEFEFE;stroke-width:300;stroke-miterlimit:22.9256}
    .str0 {stroke:#FEFEFE;stroke-width:400;stroke-miterlimit:22.9256}
    .str3 {stroke:#2B2A29;stroke-width:20;stroke-miterlimit:22.9256}
    .str2 {stroke:#FEFEFE;stroke-width:400;stroke-miterlimit:22.9256}
    .fil1 {fill:none}
    .fil0 {fill:#2B2A29}
   ]]>
  </style>
 </defs>
 <g id="Слой_x0020_1">
  <metadata id="CorelCorpID_0Corel-Layer"/>
  <path class="fil0 str0" d="M6101.47 1508.15c2761.43,0 5000,1007.36 5000,2250 0,1242.64 -2238.57,2250 -5000,2250 -2761.43,0 -5000,-1007.36 -5000,-2250 0,-1242.64 2238.57,-2250 5000,-2250z"/>
  <path class="fil0 str0" d="M6101.47 2800.97c3037.57,0 5500,1119.29 5500,2500 0,1380.71 -2462.43,2500 -5500,2500 -3037.57,0 -5500,-1119.29 -5500,-2500 0,-1380.71 2462.43,-2500 5500,-2500z"/>
  <path class="fil0 str0" d="M6101.47 4176.82c2347.21,0 4250,1007.36 4250,2250 0,1242.64 -1902.79,2250 -4250,2250 -2347.21,0 -4250,-1007.36 -4250,-2250 0,-1242.64 1902.79,-2250 4250,-2250z"/>
  <path class="fil0 str0" d="M6101.47 7053.79c2071.07,0 3750,895.43 3750,2000 0,1104.57 -1678.93,2000 -3750,2000 -2071.07,0 -3750,-895.43 -3750,-2000 0,-1104.57 1678.93,-2000 3750,-2000z"/>
  <path class="fil0 str1" d="M6101.47 8153.79c966.49,0 1749.99,402.95 1749.99,900 0,497.05 -783.5,900 -1749.99,900 -966.49,0 -1749.99,-402.95 -1749.99,-900 0,-497.05 783.5,-900 1749.99,-900z"/>
  <line class="fil1 str2" x1="2351.47" y1="9053.79" x2="1851.47" y2= "6426.82" />
  <line class="fil1 str2" x1="9851.47" y1="9053.79" x2="10351.47" y2= "6426.82" />
  <line class="fil1 str2" x1="6101.47" y1="7053.79" x2="6101.47" y2= "4176.82" />
  <line class="fil1 str2" x1="4049.31" y1="7379.57" x2="3465.42" y2= "4661.79" />
  <line class="fil1 str2" x1="8033.32" y1="7339.25" x2="8792.11" y2= "4685.06" />
  <path class="fil0 str3" d="M2909.41 7741.55c-410.06,-235.88 -709.38,-526.55 -854.27,-848.92 -4.98,-2.58 -9.94,-5.16 -14.89,-7.74l274.2 1549.58c118.75,-266.19 261.37,-424.55 594.96,-692.92z"/>
  <path class="fil0 str3" d="M2055.14 6892.63c144.89,322.37 444.21,613.04 854.27,848.92 161.17,-129.67 354.84,-246.83 574.83,-348.19 106.67,-49.15 219.51,-94.58 337.85,-135.92l-300.53 -1398.83 -194.88 -907.11c-349.72,146.59 -646.9,326.79 -874.11,531.37 -314.76,283.42 -495.27,613.65 -495.27,966.19l73.2 384.58c7.64,19.78 15.85,39.44 24.64,58.99z"/>
  <path class="fil0 str3" d="M8638.01 5825.69l-394.18 1378.81c157.85,50.71 306.88,108.41 445.59,172.33 222.82,102.66 418.98,221.33 582.22,352.66 415.34,-238.91 718.51,-533.32 865.26,-859.84 8.9,-19.8 17.22,-39.72 24.96,-59.75l74.14 -389.52c0,-357.08 -182.83,-691.56 -501.65,-978.63 -219.9,-198.01 -504.51,-373.46 -838.43,-518.2l-257.91 902.14z"/>
  <path class="fil0 str3" d="M10136.9 6869.65c-146.75,326.52 -449.92,620.93 -865.26,859.84 337.88,271.83 440.58,408.83 585.32,682.32l295.02 -1550c-5.01,2.62 -10.04,5.23 -15.08,7.84z"/>
 </g>
</svg>
