<svg height="512pt" viewBox="-58 0 511 512" width="512pt" xmlns="http://www.w3.org/2000/svg"><path d="m47.125 7.578125h296.183594v76.738281h-296.183594zm0 0" fill="#eceaec"/><path d="m316.382812 7.578125c0 31.761719-25.746093 57.507813-57.503906 57.507813h-211.753906v19.230468h296.183594v-76.738281zm0 0" fill="#dad8db"/><path d="m344.890625 147.984375h-299.347656c-5.664063 0-10.257813-4.589844-10.257813-10.257813v-43.152343c0-5.664063 4.59375-10.257813 10.257813-10.257813h299.347656c5.664063 0 10.257813 4.59375 10.257813 10.257813v43.152343c0 5.667969-4.59375 10.257813-10.257813 10.257813zm0 0" fill="#857e87"/><path d="m344.890625 84.316406h-45.730469c5.664063 0 10.257813 4.59375 10.257813 10.257813v43.152343c0 5.667969-4.59375 10.257813-10.257813 10.257813h45.730469c5.664063 0 10.257813-4.589844 10.257813-10.257813v-43.152343c0-5.664063-4.59375-10.257813-10.257813-10.257813zm0 0" fill="#6f6571"/><path d="m139.847656 223.839844h-15.296875c-6.324219 0-11.453125-5.128906-11.453125-11.457032v-22.742187h38.207032v22.742187c0 6.328126-5.128907 11.457032-11.457032 11.457032zm0 0" fill="#ff8086"/><path d="m277.335938 199.640625h-164.238282c-31.128906 0-58.292968-21.117187-65.972656-51.289063h296.183594c-7.675782 30.171876-34.839844 51.289063-65.972656 51.289063zm0 0" fill="#eceaec"/><path d="m47.125 148.351562c1.640625 6.4375 4.171875 12.457032 7.429688 17.953126h212.074218c17.292969 0 25.84375 21.246093 13.1875 33.027343-.09375.089844-.191406.175781-.285156.261719 30.207031-.964844 56.28125-21.78125 63.777344-51.238281h-296.183594zm0 0" fill="#dad8db"/><g fill="#dad7dd"><path d="m76.746094 39.519531c-4.1875 0-7.582032-3.390625-7.582032-7.578125v-24.363281c0-4.183594 3.394532-7.578125 7.582032-7.578125 4.183594 0 7.578125 3.394531 7.578125 7.578125v24.363281c0 4.1875-3.394531 7.578125-7.578125 7.578125zm0 0"/><path d="m106.363281 39.519531c-4.1875 0-7.582031-3.390625-7.582031-7.578125v-24.363281c0-4.183594 3.394531-7.578125 7.582031-7.578125s7.578125 3.394531 7.578125 7.578125v24.363281c0 4.1875-3.390625 7.578125-7.578125 7.578125zm0 0"/><path d="m135.980469 39.519531c-4.183594 0-7.578125-3.390625-7.578125-7.578125v-24.363281c0-4.183594 3.394531-7.578125 7.578125-7.578125 4.1875 0 7.582031 3.394531 7.582031 7.578125v24.363281c-.003906 4.1875-3.394531 7.578125-7.582031 7.578125zm0 0"/><path d="m165.597656 39.519531c-4.183594 0-7.578125-3.390625-7.578125-7.578125v-24.363281c0-4.183594 3.394531-7.578125 7.578125-7.578125 4.1875 0 7.582032 3.394531 7.582032 7.578125v24.363281c0 4.1875-3.394532 7.578125-7.582032 7.578125zm0 0"/><path d="m195.21875 39.519531c-4.1875 0-7.582031-3.390625-7.582031-7.578125v-24.363281c0-4.183594 3.394531-7.578125 7.582031-7.578125 4.183594 0 7.578125 3.394531 7.578125 7.578125v24.363281c0 4.1875-3.394531 7.578125-7.578125 7.578125zm0 0"/><path d="m224.835938 39.519531c-4.1875 0-7.578126-3.390625-7.578126-7.578125v-24.363281c0-4.183594 3.390626-7.578125 7.578126-7.578125 4.183593 0 7.578124 3.394531 7.578124 7.578125v24.363281c0 4.1875-3.394531 7.578125-7.578124 7.578125zm0 0"/><path d="m254.453125 39.519531c-4.1875 0-7.578125-3.390625-7.578125-7.578125v-24.363281c0-4.183594 3.390625-7.578125 7.578125-7.578125s7.578125 3.394531 7.578125 7.578125v24.363281c0 4.1875-3.390625 7.578125-7.578125 7.578125zm0 0"/><path d="m284.070312 39.519531c-4.183593 0-7.578124-3.390625-7.578124-7.578125v-24.363281c0-4.183594 3.394531-7.578125 7.578124-7.578125 4.1875 0 7.582032 3.394531 7.582032 7.578125v24.363281c0 4.1875-3.394532 7.578125-7.582032 7.578125zm0 0"/><path d="m313.6875 39.519531c-4.183594 0-7.578125-3.390625-7.578125-7.578125v-24.363281c0-4.183594 3.394531-7.578125 7.578125-7.578125 4.1875 0 7.582031 3.394531 7.582031 7.578125v24.363281c0 4.1875-3.394531 7.578125-7.582031 7.578125zm0 0"/></g><path d="m208.039062 123.730469h-25.644531c-4.183593 0-7.578125-3.390625-7.578125-7.578125s3.394532-7.582032 7.578125-7.582032h25.644531c4.1875 0 7.578126 3.394532 7.578126 7.582032s-3.390626 7.578125-7.578126 7.578125zm0 0" fill="#ffe07e"/><path d="m278.632812 502.355469c22.421876-22.304688 27.25-65.574219 28.253907-80.019531.179687-2.644532-1.953125-4.863282-4.601563-4.800782-4.871094.113282-13.019531.527344-22.566406 1.867188 1.324219-28.667969-14.5625-60.726563-20.734375-72.015625-1.273437-2.324219-4.265625-3.042969-6.464844-1.558594-3.847656 2.597656-10.054687 7.023437-16.964843 12.871094-7.238282-26.082031-27.355469-49.863281-35.359376-58.578125-1.792968-1.953125-4.871093-1.949219-6.648437.015625-7.949219 8.796875-28.027344 32.839843-35.332031 58.621093-6.9375-5.875-13.171875-10.324218-17.035156-12.929687-2.199219-1.480469-5.191407-.765625-6.464844 1.558594-6.207032 11.351562-22.238282 43.714843-20.707032 72.503906-10.960937-1.734375-20.433593-2.226563-25.855468-2.355469-2.652344-.0625-4.785156 2.15625-4.601563 4.800782 1.003907 14.445312 5.828125 57.714843 28.25 80.019531" fill="#ff8b5a"/><path d="m242.152344 502.355469c12.617187-12.550781 15.332031-36.894531 15.894531-45.023438.105469-1.488281-1.097656-2.738281-2.585937-2.703125-2.742188.066406-7.324219.296875-12.699219 1.050782.746093-16.128907-8.191407-34.167969-11.667969-40.519532-.714844-1.308594-2.398438-1.710937-3.636719-.878906-2.164062 1.460938-5.65625 3.953125-9.546875 7.242188-4.070312-14.671876-15.390625-28.054688-19.894531-32.957032-1.007813-1.097656-2.742187-1.097656-3.742187.007813-4.472657 4.949219-15.769532 18.476562-19.878907 32.984375-3.902343-3.304688-7.410156-5.808594-9.585937-7.273438-1.234375-.835937-2.917969-.433594-3.636719.875-3.492187 6.390625-12.511719 24.597656-11.652344 40.796875-6.164062-.976562-11.496093-1.253906-14.546875-1.324219-1.492187-.035156-2.691406 1.210938-2.585937 2.699219.5625 8.128907 3.277343 32.472657 15.894531 45.023438" fill="#ffe07e"/><path d="m309.117188 512h-227.800782c-4.1875 0-7.582031-3.394531-7.582031-7.578125 0-4.1875 3.394531-7.582031 7.582031-7.582031h227.804688c4.183594 0 7.578125 3.394531 7.578125 7.582031 0 4.183594-3.394531 7.578125-7.582031 7.578125zm0 0" fill="#4b3f4e"/><path d="m388.882812 0h-380.804687c-4.183594 0-7.578125 3.394531-7.578125 7.578125 0 4.1875 3.394531 7.582031 7.578125 7.582031h380.808594c4.183593 0 7.578125-3.394531 7.578125-7.582031 0-4.183594-3.394532-7.578125-7.582032-7.578125zm0 0" fill="#4b3f4e"/></svg>