<svg height="512pt" viewBox="0 -31 512 512" width="512pt" xmlns="http://www.w3.org/2000/svg"><path d="m455.5 71.398438v38.402343h-5.097656l-14.101563 70.199219-27 27c-4.800781-3.300781-7.199219-9-6-15l16.5-82.199219h-58.800781v85.199219c0 8.398438-6.597656 15-15 15-8.398438 0-15-6.601562-15-15v-85.199219h-60v85.199219c0 8.398438-6.597656 15-15 15-8.398438 0-15-6.601562-15-15v-85.199219h-60v85.199219c0 8.398438-6.597656 15-15 15-8.398438 0-15-6.601562-15-15v-85.199219h-58.800781l16.5 82.199219c.601562 3.597656 0 6.601562-1.5 9.597656l-31.5-21.597656-14.097657-70.199219h-4.5v-38.402343zm0 0" fill="#d8d8fc"/><path d="m455.5 71.398438v38.402343h-5.097656l-14.101563 70.199219-27 27c-4.800781-3.300781-7.199219-9-6-15l16.5-82.199219h-58.800781v85.199219c0 8.398438-6.597656 15-15 15-8.398438 0-15-6.601562-15-15v-85.199219h-60v85.199219c0 8.398438-6.597656 15-15 15v-138.601562zm0 0" fill="#a3a3d1"/><path d="m481 22.5v82.5c0 8.398438-6.597656 15-15 15h-420c-8.398438 0-15-6.601562-15-15v-82.5zm0 0" fill="#f2f2fc"/><path d="m436.300781 180-15.601562 77.699219c-1.5 6.902343-7.5 12-14.699219 12h-300.597656c-6.601563 0-12.601563-4.5-14.101563-11.097657v-.300781l-15.601562-78.300781zm0 0" fill="#f2f2fc"/><path d="m256 180h180.300781l-15.601562 77.699219c-1.5 6.902343-7.5 12-14.699219 12h-150zm0 0" fill="#d8d8fc"/><path d="m481 22.5v82.5c0 8.398438-6.597656 15-15 15h-210v-97.5zm0 0" fill="#d8d8fc"/><path d="m256 60c-24.898438 0-45 20.097656-45 45 0 24.898438 20.101562 45 45 45 24.902344 0 45-20.101562 45-45 0-24.902344-20.097656-45-45-45zm0 0" fill="#ff9100"/><path d="m153.242188 442.894531c-4.351563-7.042969-2.183594-16.300781 4.863281-20.652343 4.875-3.003907 7.894531-9.609376 7.894531-17.242188s-3.019531-14.238281-7.894531-17.242188c-13.84375-8.554687-22.105469-24.550781-22.105469-42.757812s8.261719-34.203125 22.105469-42.757812c7.042969-4.382813 16.300781-2.183594 20.652343 4.863281 4.351563 7.042969 2.183594 16.300781-4.863281 20.652343-4.875 3.003907-7.894531 9.609376-7.894531 17.242188s3.019531 14.238281 7.894531 17.242188c13.84375 8.554687 22.105469 24.550781 22.105469 42.757812s-8.261719 34.203125-22.105469 42.757812c-6.992187 4.332032-16.265625 2.214844-20.652343-4.863281zm0 0" fill="#ffda2d"/><path d="m286 405c0 18.300781-8.398438 34.199219-22.199219 42.898438-2.402343 1.5-5.101562 2.101562-7.800781 2.101562-4.800781 0-9.898438-2.402344-12.898438-7.199219-4.203124-6.902343-2.101562-16.203125 5.097657-20.699219 4.800781-3.003906 7.800781-9.601562 7.800781-17.101562s-3-14.101562-7.800781-17.101562c-13.796875-8.699219-22.199219-24.597657-22.199219-42.898438s8.402344-34.199219 22.199219-42.898438c2.402343-1.503906 5.101562-2.101562 7.800781-2.101562 4.800781 0 9.902344 2.398438 12.898438 7.199219 4.203124 6.898437 2.101562 16.199219-5.097657 20.699219-4.796875 3-7.800781 9.601562-7.800781 17.101562s3.003906 14.097656 7.800781 17.101562c13.800781 8.699219 22.199219 24.597657 22.199219 42.898438zm0 0" fill="#ffda2d"/><path d="m333.242188 442.894531c-4.351563-7.042969-2.183594-16.300781 4.863281-20.652343 4.875-3.003907 7.894531-9.609376 7.894531-17.242188s-3.019531-14.238281-7.894531-17.242188c-13.84375-8.554687-22.105469-24.550781-22.105469-42.757812s8.261719-34.203125 22.105469-42.757812c7.03125-4.382813 16.300781-2.183594 20.652343 4.863281 4.351563 7.042969 2.183594 16.300781-4.863281 20.652343-4.875 3.003907-7.894531 9.609376-7.894531 17.242188s3.019531 14.238281 7.894531 17.242188c13.84375 8.554687 22.105469 24.550781 22.105469 42.757812s-8.261719 34.203125-22.105469 42.757812c-6.992187 4.332032-16.265625 2.214844-20.652343-4.863281zm0 0" fill="#ff9100"/><path d="m256 150v-90c24.902344 0 45 20.097656 45 45 0 24.898438-20.097656 45-45 45zm0 0" fill="#ff641a"/><path d="m512 15c0 8.398438-6.597656 15-15 15h-482c-8.398438 0-15-6.601562-15-15 0-8.402344 6.601562-15 15-15h482c8.402344 0 15 6.597656 15 15zm0 0" fill="#575f64"/><path d="m512 15c0 8.398438-6.597656 15-15 15h-241v-30h241c8.402344 0 15 6.597656 15 15zm0 0" fill="#32393f"/></svg>