<svg height="512pt" viewBox="-118 0 512 512" width="512pt" xmlns="http://www.w3.org/2000/svg"><path d="m97.550781 322.863281v25.371094c0 5.640625-1.621093 10.988281-4.492187 15.523437-1.699219 2.683594-3.832032 5.085938-6.320313 7.097657-2.890625 2.339843-6.257812 4.144531-9.96875 5.25l-13.625 4.058593c-28.746093 8.5625-48.457031 34.992188-48.457031 64.980469v59.179688c0 4.234375 3.445312 7.675781 7.683594 7.675781h236.964844c4.230468 0 7.671874-3.441406 7.671874-7.675781v-59.179688c0-29.761719-19.394531-56.007812-47.785156-64.773437-.214844-.078125-.441406-.140625-.660156-.207032l-20.367188-6.070312c-5.207031-1.5625-9.730468-4.484375-13.214843-8.3125-4.75-5.21875-7.566407-12.132812-7.566407-19.558594v-23.382812" fill="#efb1a0"/><path d="m137.625 339.003906c-48.535156 0-87.882812-39.347656-87.882812-87.882812v-106.769532h175.765624v106.769532c0 48.535156-39.347656 87.882812-87.882812 87.882812zm0 0" fill="#ffcab5"/><path d="m255.582031 144.351562v125.949219c0 19.089844-15.476562 34.566407-34.566406 34.566407h-166.78125c-19.089844 0-34.566406-15.476563-34.566406-34.566407v-125.949219zm0 0" fill="#a9dbf6"/><path d="m68.117188 304.867188h139.015624c11.507813-14.859376 18.375-33.496094 18.375-53.746094v-106.769532h-175.765624v106.769532c0 20.25 6.867187 38.886718 18.375 53.746094zm0 0" fill="#9bceea"/><path d="m255.296875 116.957031h-235.34375v-36.191406c0-44.605469 36.160156-80.765625 80.765625-80.765625h73.8125c44.605469 0 80.765625 36.160156 80.765625 80.765625zm0 0" fill="#ffe07e"/><path d="m161.933594 61.875c0 13.425781-10.882813 24.308594-24.308594 24.308594s-24.308594-10.882813-24.308594-24.308594 10.882813-24.3125 24.308594-24.3125 24.308594 10.886719 24.308594 24.3125zm0 0" fill="#fff"/><path d="m267.105469 116.957031h-258.960938c-4.5 0-8.144531 3.371094-8.144531 7.527344v48.65625c0 1.453125 1.273438 2.632813 2.847656 2.632813h6.875c10.167969 0 18.414063-7.621094 18.414063-17.023438v-6.648438c0-4.070312 3.570312-7.371093 7.972656-7.371093h203.03125c4.402344 0 7.972656 3.300781 7.972656 7.371093v6.648438c0 9.402344 8.246094 17.023438 18.414063 17.023438h6.871094c1.574218 0 2.851562-1.179688 2.851562-2.632813v-48.65625c0-4.15625-3.644531-7.527344-8.144531-7.527344zm0 0" fill="#ff8b5a"/><path d="m267 445.148438v28.867187h-47.75v37.980469h-155.320312v-37.980469h-49.246094v-28.867187c0-29.992188 19.710937-56.425782 48.453125-64.980469l.769531-.226563 12.855469-3.835937c3.71875-1.101563 7.085937-2.910157 9.976562-5.257813 2.492188-1.996094 4.613281-4.40625 6.316407-7.085937 11.980468 4.839843 28.347656 9.433593 47.9375 9.550781 16.824218.101562 31.628906-3.128906 43.984374-7.535156 2.796876 3.074218 6.257813 5.570312 10.214844 7.234375.96875.414062 1.964844.765625 2.996094 1.078125l20.367188 6.082031c.226562.058594.457031.132813.671874.207031 28.390626 8.757813 47.773438 35.015625 47.773438 64.769532zm0 0" fill="#9898ed"/><path d="m195.191406 373.007812-.464844.667969v48.503907c0 11.765624-9.539062 21.292968-21.304687 21.292968h-65.382813c-11.761718 0-21.304687-9.527344-21.304687-21.292968v-51.332032c-2.886719 2.347656-6.253906 4.15625-9.972656 5.257813l-12.855469 3.832031.019531.230469v131.828125h155.324219l-.023438-37.980469v-93.640625zm0 0" fill="#ffe07e"/><g fill="#8bbdd8"><path d="m106.074219 203.09375c0 4.304688-3.488281 7.792969-7.792969 7.792969s-7.796875-3.488281-7.796875-7.792969 3.492187-7.792969 7.796875-7.792969 7.792969 3.488281 7.792969 7.792969zm0 0"/><path d="m184.371094 203.09375c0 4.304688-3.488282 7.792969-7.792969 7.792969s-7.792969-3.488281-7.792969-7.792969 3.488282-7.792969 7.792969-7.792969 7.792969 3.488281 7.792969 7.792969zm0 0"/></g></svg>